<?xml version="1.0" encoding="utf-8"?>
<!-- Generator: Adobe Illustrator 13.0.0, SVG Export Plug-In . SVG Version: 6.00 Build 14576)  -->
<!DOCTYPE svg PUBLIC "-//W3C//DTD SVG 1.1 Tiny//EN" "http://www.w3.org/Graphics/SVG/1.1/DTD/svg11-tiny.dtd">
<svg version="1.1" baseProfile="tiny" id="Layer_1" xmlns="http://www.w3.org/2000/svg" xmlns:xlink="http://www.w3.org/1999/xlink"
	 x="0px" y="0px" width="678.068px" height="933.094px" viewBox="0 0 678.068 933.094" xml:space="preserve">
<path fill="#010101" d="M420.469,592.315c-0.054-0.154-0.102-0.3-0.15-0.453c-0.091-1.278,0-2.581,0.366-3.897l9.812-25.312
	l-51.104,0.498c1.798,2.745,20.975,29.903,22.513,32.791c0.895,2.365,1.92,4.661,2.935,6.91L420.469,592.315z"/>
<polygon fill="#FFFFFF" points="428.08,560.829 416.253,590.771 403.924,593.664 386.941,566.616 "/>
<path fill="#020202" d="M252.149,894.451c-2.594,1.291-3.928,3.996-5.465,6.307c2.715-0.312,5.41-0.787,8.145-0.953
	c4.477-0.117,8.957,1.467,13.42,0.562l-4.721-9.633L252.149,894.451z"/>
<path fill="#020202" d="M263.578,876.502c-5.674,0.646-11.367,1.998-16.281,5.02c-0.146,0.967-0.287,1.947-0.426,2.938
	c4.107-0.355,7.961,1.157,11.926,1.891L263.578,876.502z"/>
<path fill="#020202" d="M267.803,866.361c-4.904-0.494-9.844-1.547-14.781-0.866c-2.412,0.3-3.271,2.831-4.229,4.696
	c5.764-0.469,10.348,3.783,16.021,3.828L267.803,866.361z"/>
<path fill="#EE2424" stroke="#010101" stroke-width="2" d="M103.525,150.667c-0.385,0-0.736-0.251-0.856-0.63
	c-0.137-0.433,0.069-0.899,0.483-1.089c5.101-2.34,125.035-57.357,135.416-60.674c0.09-0.029,0.182-0.043,0.272-0.043
	c0.311,0,0.607,0.161,0.772,0.44c2.527,4.229,5.418,8.57,9.406,11.659c2.82,2.151,5.309,5.782,3.009,8.925
	c-2.81,4.493-4.442,9.276-4.815,14.163c-0.031,0.41-0.336,0.746-0.742,0.817c-5.562,0.979-141.408,26.16-142.78,26.415
	C103.636,150.662,103.581,150.667,103.525,150.667L103.525,150.667z"/>
<path fill="#020202" d="M385.279,873.072c0,0,6.236,2.329,7.893,3.31c1.652,0.978,2.779,2.631,2.779,2.631s-6.014,2.104-7.814,2.104
	s-3.982-1.879-3.982-1.879L385.279,873.072z"/>
<path fill="#010101" d="M262.022,630.536l0.876,1.021l0.507,0.587l0.771,0.093c0.765,0.092,1.561,0.186,2.416,0.276
	c1.643,1.503,3.474,2.801,5.372,3.972c0.414-3.545,0.793-7.51-1.48-10.547c-0.444-0.592-0.93-1.144-1.435-1.676L262.022,630.536z"/>
<path fill="#010101" d="M173.293,647.76c-3.824,5.64-7.779,11.471-10.761,17.834c0,0-1.29,2.367-1.694,3.615
	c-0.404,1.248,0.383,3.227,0.497,5.131c1.997-1.136,3.666-2.818,4.201-4.881c0.105-0.405,1.482-1.464,2.102-1.623
	c4.665-1.197,8.722-4.646,10.652-9.188l0.021-0.052L173.293,647.76z"/>
<path fill="#010101" d="M157.691,648.079l-0.655,0.683c-3.418,3.56-6.928,7.227-8.838,11.938c-0.716,1.225-1.37,2.489-1.928,3.824
	c-1.198,2.688,0.488,5.349,1.626,7.729c1.621-2.65,2.82-5.865,5.729-7.395c1.231-0.618,2.344-1.366,3.367-2.207
	c0.851-0.605,1.649-1.319,2.339-2.189c0.223-0.268,0.438-0.534,0.658-0.805c0.048-0.059,0.096-0.114,0.144-0.176
	c0.817-0.996,1.623-2,2.404-2.98c1.98-2.494,6.368-7.441,6.368-7.441l0.081-0.104L157.691,648.079z"/>
<path fill="#010101" d="M153.331,635.518l-0.054,0.048l-0.051,0.052c-1.093,1.108-2.289,2.144-3.555,3.231
	c-1.571,1.354-4.749,4.431-4.831,4.498c-4.462,3.676-6.131,9.486-7.042,14.969c3.673-1.472,6.438-4.253,9.231-6.962
	c0.932-0.097,1.831-0.198,2.695-0.307l0.657-0.082l0.478-0.459c1.909-1.83,5.925-5.519,5.925-5.519L153.331,635.518z"/>
<path fill="#EE2424" stroke="#010101" stroke-width="2" d="M329.625,618.762c-3.061-0.484-28.484-4.927-30.864-5.449
	c-2.604-0.572-41.981-8.506-44.091-5.625c-2.11,2.881,1.268,6.394,3.036,8.099c1.312,1.32,2.845,2.455,4.472,3.658
	c3.873,2.862,7.883,5.823,8.488,11.271l0.138,1.229l-6.892-0.752c0,0-12.018-13.969-19.567-17.373
	c-7.646-4.36-24.025-8.317-33.469,0.646l-0.041,0.036l-0.043,0.028c-15.187,11.562-26.74,26.667-33.411,43.696
	c-2.071,4.881-6.712,8.396-11.834,8.98l-2.953,0.609l0.847-1.806c2.946-6.291,6.878-12.089,10.68-17.695
	c2.044-3.013,8.294-12.843,9.411-14.564c1.59-2.454,3.217-4.971,4.617-7.588c-7.613,6.168-13.8,14.015-19.957,22.185l-0.042,0.052
	l-0.047,0.048c-2.281,2.312-4.347,4.91-6.343,7.429c-1.039,1.307-2.112,2.655-3.212,3.964c-2.344,2.979-6.032,4.083-8.996,4.969
	l-1.681,0.504l0.423-1.7c1.437-5.801,10.095-14.812,10.095-14.812c2.612-2.625,5.062-5.477,7.434-8.23
	c2.32-2.694,17.772-19.795,21.992-25.261c-0.955,0.839-1.894,1.688-2.821,2.525c-2.543,2.299-5.172,4.673-8.013,6.744
	c-1.359,1.094-27.051,25.435-27.051,25.435l-8.22,0.812l0.568-1.483c1.603-4.178,4.88-7.001,8.047-9.732
	c1.227-1.056,21.344-20.367,26.001-24.053c1.599-1.233,3.187-2.478,4.779-3.722c11.46-8.961,23.314-18.229,37.222-23.592
	c3.928-1.264,8.052-1.863,12.666-1.863c6.876,0,13.681,1.392,18.842,2.602c8.235,2.309,17.146,4.104,27.272,5.521
	c18.762,2.054,97.475,15.188,113.908,18.124c1.33,0.235,8.198,1.717,13.378,2.278c3.126,0.34,5.636-0.074,5.944-0.11
	c-0.959-4.29-2.8-8.382-4.584-12.35c-1.757-3.896-4.557-12.752-4.557-12.752c1.188-3.438,4.324-7.468,7.343-8.212
	c3.021-0.744,7.153,1.305,8.207,3.605c0.869,1.786,1.497,3.694,2.104,5.543c0.221,0.666,9.234,22.274,15.382,29.852
	c3.01,3.664,5.723,7.349,5.846,12.021c0.077,5.728-3.39,13.176-11.559,13.176c-5.999,0-10.244-4.345-12.853-7.592
	c-1.078-1.344-2.1-2.615-3.308-3.693c-1.92-1.023-4.146-1.07-6.496-1.124c-1.185-0.022-14.754-3.354-21.194-4.659
	C378.932,626.929,330.641,618.928,329.625,618.762z"/>
<path fill="#EE2424" stroke="#010101" stroke-width="2" d="M351.279,581.087c0.981,2.326,24.215,67.146,25.154,69.535
	c1.045,2.829,5.653,11.633,6.473,13.412c2.957,6.118,2.947,14.004-0.033,21.606c-1.758,4.104-3.897,10.899-4.586,13.83
	c-0.687,2.931-0.676,6.697-1.096,9.946c-0.736,5.723-8.117,89.311-8.106,94.544c-1.071,12.491-2.568,25.062-4.018,37.22
	c0,0-3.061,20.99-2.053,22.999c0.36,0.719,1.889,3.818,5.82,5.274c7.054,2.609,21.607,5.891,21.607,5.891l-1.86,4.87
	c0,0-2.331,0.146-3.173,0.209c-1.595,0.11-4.976,0.281-4.976,0.281l-0.095-0.019c0,0-6.879-1.845-9.791-2.592
	c-3.752-0.964-7.636-1.962-11.387-3.249c-1.112-0.362-2.296-0.54-3.599-0.54c-2.785,0-21.511,5.419-27.443,6.92
	c-5.673,1.438-37.088,10.286-46.951,12.407c0,0-6.308,2.046-8.665,3.37c-2.396,1.352-4.876,2.746-7.751,3.266
	c-0.568,0.063-1.083,0.09-1.603,0.09l0,0c-2.384,0-4.699-0.547-6.941-1.072c-0.866-0.201-3.478-0.75-3.478-0.75l0.443-4.724
	c0,0,14.969-3.704,21.579-4.498c5.712-0.713,11.247-2.689,16.6-4.608c2.895-1.037,5.889-2.11,8.896-2.98
	c2.657-0.777,5.198-1.738,7.601-2.869c-3.996,0.726-8.396,1.34-13.596,1.916c-4.913,0.973-23.246,3.616-27.354,4.359
	c-2.337,0.312-4.439,0.462-6.469,0.462c-1.854,0-3.646-0.132-5.326-0.392c-2.097-0.325-5.325-4.897-5.325-4.897l1.279-0.438
	c3.167-1.08,6.596-1.771,10.529-2.104c1.878-0.159,7.66-0.221,7.983-0.221c5.809,0,11.685-0.883,17.369-1.73
	c2.78-0.415,5.66-0.847,8.505-1.171c0,0,8.955-0.597,12.415-2.016c-0.854,0.09-10.171,0.824-11.127,0.824
	c-5.316,0-10.814,0-16.211-0.757c-1.063,0.071-2.131,0.153-3.202,0.237c-3.19,0.244-6.489,0.499-9.753,0.499
	c-4.077,0-9.806-0.614-10.986-1.436c-1.18-0.822-4.437-4.939-4.437-4.939l1.573-0.39c1.391-0.349,2.86-0.515,4.494-0.515
	c2.272,0,4.562,0.328,6.771,0.646c2.191,0.312,4.427,0.635,6.589,0.635c1.38,0,2.623-0.127,3.796-0.391l0.084-0.021l0.084-0.004
	c9.367-0.463,29.934-2.311,31.337-2.311c10.093,0,19.674-2.492,27.706-7.209c6.602-4.195,12.034-10.308,14.572-18.261
	c1.808-5.756,2.778-11.775,3.562-17.433c0.37-2.715,3.325-96.54,3.188-105.997c-0.135-9.457-1.94-32.551-2.255-36.314
	c-0.396-4.776-0.81-9.723-0.406-14.646c0.206-2.182,2.366-9.36,2.625-10.929c-0.605-4.751-2.165-9.415-3.672-13.931l-22.784-64.124
	L351.279,581.087z"/>
<path fill="#FFFDFD" stroke="#010101" stroke-width="2.5" d="M475.894,390.4l102,222c-6.155-6.719-44.025-21.637-59.409-29.242
	c0,0-22.091-9.383-38.841-11.258s-38.381-1.477-38.381-1.477s-22.788,4.718-41.783,2.62c-17.914-1.979-35.24-9.917-36.991-10.299
	l-0.165-0.036c0.047,2.646-0.201,12.9-0.396,15.177c-0.119,3.843-0.709,7.657-1.756,11.271l-0.34,1.166l-1.21-0.085
	c-6.2-0.438-10.978-4.175-15.593-7.783c-0.492-0.39-0.98-0.771-1.475-1.146c-2.76,3.121-10.312,8.938-10.312,8.938
	s-25.693-41.546-26.314-42.514c-1.975-3.076-3.839-5.979-6.897-7.51c0,0-25.258-15.054-41.322-28.796
	c-14.181-12.132-25.197-26.249-27.996-29.956c-3.089-4.357-6.174-9.022-8.34-14.104c-1.466,2.371-4.143,5.76-6.924,7.643
	c-3.623,2.452-7.287,3.086-7.287,3.086s1.526-6.247,2.34-13.116c0.671-5.668,0.674-11.76,0.549-15.114
	c-2.885,4.122-5.435,7.237-9.48,11.128c-4.287,4.123-8.974,6.883-8.974,6.883s2.636-12.903,2.918-18.796
	c0.354-7.382-0.716-22.423-0.738-22.75c-1.056,1.713-3.533,4.681-5.984,6.908c-2.955,2.688-5.848,4.511-5.848,4.511
	s1.215-6.64,1.726-14.127c0.394-5.779,0.183-12.119-0.182-15.975c-1.161,2.157-6.805,9.316-6.805,9.316s-0.662-12.948-1.074-25.488
	c-0.544-16.569-0.563-40.082,2.283-60.573c9.3-66.959,46.916-99.394,74.667-144.667c7.989-13.033,11.75-26.768,11.966-32.295
	c-0.036-1.465,0.024-3.066,0.083-4.616c0.177-4.646-0.339-10.888-1.788-12.812c-1.45-1.924-1.229-5.774-1.138-6.33
	c-4.164-1.354-7.758-3.778-10.965-5.941c-3.232-2.129-2.671-6.444-1.2-9.487c2.083-4.009,4.216-7.812,7.498-10.655
	c-0.091,0.002-0.18,0.002-0.271,0.002c-1.22,0-5.582-2.998-9.321-6.56c-3.465-3.3-6.354-7.138-6.711-8.222l-0.074-0.469
	c0-3.083,1.335-5.756,2.628-8.34c0.242-0.486,1.605-2.995,1.605-2.995c4.686-8.079,9.533-16.435,17.052-22.448
	c10.144-9.24,23.637-14.804,34.954-14.804c26.577,0,42.429,23.591,45.86,38.468c2.396,9.958,6.36,28.438-1.344,51.171
	c-4.922,14.518-18.823,36.201-21.993,40.754c-8.842,12.695-20.916,31.611-29.628,52.819c-14.463,35.211-13.236,68.477,3.281,88.99
	c10.312,12.806,28.421,21.469,53.826,25.751c5.525,0.58,11.039,1.947,16.371,3.27c1.524,0.378,3.052,0.756,4.578,1.117
	c4.45,1.181,8.891,2.576,13.182,3.928c10.455,3.291,21.271,6.695,32.365,6.981l1.593,0.041l-0.136,1.586
	c-0.121,1.397-0.23,2.798-0.325,4.204c2.439,1.148,5.102,1.713,7.896,2.308c2.291,0.488,4.659,0.992,6.938,1.851l1.877,0.705
	c0,0,26.311,13.705,45.096,24.663"/>
<path fill="none" stroke="#020202" stroke-width="2" d="M261.267,130.249c16.658,4.759,44.569-8.816,51.208-14.945"/>
<path fill="none" stroke="#010101" stroke-width="2" d="M103.69,150.65c0,0,155.387-47.981,160.369-48.888
	c4.982-0.907,4.755,1.132,4.755,1.132"/>
<polygon fill="#FFFDFD" points="438.144,567.775 443.269,572.025 452.769,571.65 479.269,574.65 499.769,578.775 506.144,578.9 
	516.519,583.775 523.894,581.9 506.394,572.025 457.894,564.9 "/>
<path fill="#FFFDFD" d="M478.561,396.234l59,45l40.543,43.476l17.5,27.5c0,0,3.209,7.91,4.938,13.442
	c1.728,5.532,10.354,33.748,10.354,33.748l10.205,99.295l-5.5-2.673l-78.496-123.813l-81.5-58.5L478.561,396.234z"/>
<path fill="#010101" d="M304.762,72.375c-0.565-1.037-9.877,0.555-9.877,0.555c-5.791,1.123-11.653,2.234-17.452,2.232
	c-0.627,0-1.253-0.012-1.876-0.039l-0.049-0.002h-0.056c-2.991,0.039-7.087,0.242-10.802,2.1
	c-5.861,2.723-8.773,8.037-11.673,13.087c-1.135,1.989-2.282,3.994-3.523,5.758l-0.432,0.615l-1.643,2.329l3.946,2.205
	c0,0,4.272-4.972,5.626-6.072c1.357-1.094,2.74-1.772,4.551-1.866c0.59,0.088,1.207,0.192,1.842,0.297
	c1.893,0.311,3.937,0.662,6.01,0.666c2.64,0.014,4.988-0.637,6.878-2.085c2.175-1.729,3.627-3.91,5.082-6.02
	c1.969-2.898,3.82-5.5,6.65-6.936c1.606-0.531,3.267-1.02,4.897-1.499C293.846,77.408,305.328,73.413,304.762,72.375z"/>
<path fill="#FFFDFD" d="M271.21,85.475c-0.697-0.681,0.798-3.342,1.319-3.864c1.225-1.226,4.43-1.791,5.089-0.754
	c0.659,1.037,0.471,2.733-1.131,3.77C275.568,85.223,272.151,86.393,271.21,85.475z"/>
<path fill="none" stroke="#010101" stroke-width="2.3" d="M339.561,387.9c-7.667-5.333-69.667-39-82.667-35
	s-26.333,20.667-28.667,41.667s7,41.667,23.667,42s15-8,15-8"/>
<path fill="none" stroke="#010101" stroke-width="2.3" d="M242.894,397.233c0,0,15.333,31.666,27.333,32s13-7.666,13-7.666"/>
<path fill="none" stroke="#010101" stroke-width="2.3" d="M261.227,391.233c0,0,18,32.668,28.333,33.334
	c1.308,0.084,5.424,0.896,8-1c3.455-2.541,5.333-8,5.333-8"/>
<path fill="none" stroke="#010101" stroke-width="2.3" d="M280.56,385.567c0,0,16.261,26.312,25.115,32.161
	c0.27,0.178,3.168,2.351,6.864,2.901c3.807,0.567,8.464-0.525,12.354-3.062"/>
<path fill="none" stroke="#010101" stroke-width="2.3" d="M292.227,496.567c0,0-19.777-10.06-34.333-23.667
	c-10.622-9.93-16.927-23.766-18.333-27c-3.333-7.667-3.271-17.562-3.271-17.562"/>
<path fill="none" stroke="#010101" stroke-width="2.3" d="M241.394,433.493c0,0,3.5,8.407,9.833,16.407s21,23.333,30,24.333
	s14.333-3,14.333-3"/>
<path fill="none" stroke="#010101" stroke-width="2.3" d="M262.56,435.9c0,0,15.334,21.333,20.667,26.333s11.975,9.765,17.333,9.334
	c8.333-0.667,12-8.334,12-8.334"/>
<path fill="none" stroke="#010101" stroke-width="2.3" d="M278.581,428.233c0,0,20.646,28.668,30.312,32.334
	c13.688,5.191,16.442-2.104,18.667-4"/>
<path fill="none" stroke="#010101" stroke-width="2.3" d="M296.967,424.483c0,0,23.927,31.75,34.927,31.75
	s15.333-6.333,15.333-6.333s-7.999-2.999-15.666-10.333s-15.792-18.26-15.792-18.26"/>
<path fill="#FFFFFF" stroke="#010101" stroke-width="2" d="M427.986,551.186c3.251,6.503,10.837,20.322,17.611,21.677
	c6.772,1.355,7.856,0,7.856,0"/>
<path fill="#FFFFFF" stroke="#010101" stroke-width="2" d="M441.804,551.999c0,0,8.271,18.866,13.816,21.945
	c6.896,3.829,13.896,0.704,13.896,0.704"/>
<path fill="#FFFFFF" stroke="#010101" stroke-width="2" d="M459.687,554.709c0,0,6.959,18.985,13.005,22.218
	c7.202,3.849,14.36,0.542,14.36,0.542"/>
<path fill="#FFFFFF" stroke="#010101" stroke-width="2" d="M477.029,557.688c0,0,6.819,21.857,15.49,23.212
	c8.671,1.355,10.625-1,10.625-1"/>
<path fill="#FFFFFF" stroke="#010101" stroke-width="2" d="M493.015,559.044c0,0,4.877,17.61,12.191,21.945
	s14.633,1.896,14.633,1.896"/>
<path fill="#FFFFFF" stroke="#010101" stroke-width="2" d="M510.084,560.128c0,0,5.688,21.402,13.274,24.927
	c7.587,3.521,15.445,1.896,15.445,1.896"/>
<path fill="none" stroke="#010101" stroke-width="2" d="M526.884,551.999c0,0,4.062,28.179,10.297,33.598
	c6.232,5.419,19.508,0.542,19.508,0.542"/>
<path d="M383.983,458.651c0.572,0.025,1.282,0.04,2.1,0.04c3.988,0,10.538-0.3,17.728-0.3c2.918,0.011,5.936,0.059,8.943,0.194
	c-1.222-2.414-3.161-6.189-5.363-10.229c-3.688-6.799-8.283-14.464-10.91-17.043c-5.713-5.744-33.4-27.406-42.195-33.251
	c-4.594-3.059-9.27-4.326-13.66-4.328c-0.007,0-0.012,0-0.018,0c-5.618,0-10.789,2.112-14.516,5.358
	c-3.735,3.254-5.971,7.571-5.964,11.965c0,1.745,0.345,3.52,1.108,5.304c2.397,5.601,7.81,13.469,25.826,26.411
	c6.742,4.846,14.755,8.784,21.719,11.521C375.702,457.032,381.765,458.565,383.983,458.651z"/>
<path d="M438.681,472.087c-0.003-0.392-0.062-0.713-0.164-0.993c-0.582-1.575-1.892-2.954-4.022-4.156
	c-2.115-1.194-4.981-2.14-8.272-2.82c-6.589-1.376-14.843-1.729-22.412-1.726c-7.09,0-13.569,0.297-17.728,0.299
	c-0.859,0-1.622-0.015-2.288-0.044c-2.529-0.145-6.771-1.173-11.979-2.973l-0.248,0.546c-0.002,0.004-0.482-0.22-1.116-0.442
	c-0.597-0.226-1.39-0.403-1.558-0.394v0.001c0,0.004-0.009,0-0.081,0.019c-0.075,0.021-0.181,0.056-0.304,0.1
	c-0.249,0.089-0.568,0.223-0.895,0.393c-0.652,0.332-1.323,0.827-1.666,1.261c-0.011-0.002-0.14,0.259-0.21,0.742
	c-0.106,0.496-0.059,1.045-0.474,2.019c-0.085,0.175-0.118,0.348-0.118,0.562c-0.011,0.386,0.172,0.859,0.249,0.997l0.006,0.017
	h0.002l-0.198,0.122c2.062,1.305,4.787,2.949,7.969,4.749c6.816,3.858,15.7,8.396,24.423,11.668
	c10.558,3.987,24.834,4.985,30.513,5.108c3.641-3.525,6.573-6.807,8.399-9.632C438.01,475.225,438.702,473.289,438.681,472.087z"/>
<path d="M432.574,488.352c-3.673,3.715-8.119,7.65-12.967,11.645c5.695,3.506,11.347,5.829,22.253,8.461
	c6.133,1.474,13.336,2.593,18.981,3.337c0.842,0.109,1.643,0.213,2.403,0.307c-9.636-7.609-18.01-14.077-23.739-18.467
	C436.263,491.148,433.877,489.338,432.574,488.352z"/>
<path d="M399.462,515.515c8.291,2.322,24.679,6.55,38.977,6.885c0.633,0.017,1.265,0.021,1.898,0.021
	c12.359,0.006,24.559-2.812,30.381-4.394c-0.522-0.417-1.04-0.829-1.56-1.239c-3.822-0.386-17.4-1.852-28.231-4.443
	c-11.816-2.822-18.172-5.554-24.605-9.688c-1.652,1.325-3.336,2.652-5.045,3.978C407.391,509.642,403.397,512.628,399.462,515.515z"
	/>
<path d="M462.167,398.285c18.298,9.263,42.417,23.504,67.652,44.065c27.106,22.085,44.061,40.535,55.24,55.081
	c4.371,5.686,7.864,10.781,10.731,15.25c-2.177-5.709-4.863-12.285-7.966-18.938c-5.6-12.023-13.187-24.195-19.604-32.637
	c-14.406-18.965-32.729-40.216-51.899-56.953c-17.568-15.343-34.986-25.465-49.002-31.85c-13.979-6.385-24.698-9.036-28.396-9.417
	c-0.562-0.062-1.109-0.089-1.649-0.089c-3.104-0.002-5.828,0.959-7.688,2.343c-1.877,1.399-2.812,3.117-2.804,4.695
	c0,0.108,0.008,0.225,0.019,0.357c0.092,0.921,0.379,1.531,0.972,2.211c0.594,0.669,1.552,1.348,2.845,2.013
	c2.579,1.342,6.389,2.585,10.622,4.384c4.77,2.08,10.091,7.312,14.53,12.085C458.49,393.833,460.796,396.595,462.167,398.285z"/>
<path d="M399.308,428.484c0.154,0.156,0.312,0.33,0.47,0.503c2.51,0.788,10.882,3.461,22.162,7.517
	c-0.361-1.281-0.91-3.15-1.645-5.438c-1.425-4.429-3.525-10.366-6.227-16.345c-7.188-16.004-18.389-34.351-26.488-41.311
	c-9.974-8.669-21.221-11.097-27.088-11.766c1.855,3.143,3.989,8.271,3.995,15.235c0,0.864-0.033,1.752-0.104,2.672
	c-0.454,6.116-2.815,10.131-5.376,12.505c-1.108,1.021-2.201,1.745-3.191,2.254c0.229,0.145,0.458,0.271,0.687,0.423
	C365.708,400.892,393.023,422.229,399.308,428.484z"/>
<path d="M323.377,486.454c0.013,0.04,0.048,0.119,0.105,0.226c0.115,0.213,0.318,0.527,0.596,0.896
	c0.561,0.74,1.422,1.698,2.503,2.777c2.161,2.165,5.2,4.825,8.63,7.597c6.86,5.542,15.323,11.556,21.681,15.22
	c10.724,6.232,26.115,6.758,29.678,6.737c5.114-3.658,10.633-7.646,16.115-11.758c1.005-0.751,2.007-1.508,3.006-2.267
	c-7.915-0.807-21.68-3.446-32.127-8.161c-7.464-3.396-13.811-7.481-18.533-10.887c-4.685-3.377-7.916-6.199-8.636-6.696
	c-0.031-0.023-0.031-0.021-0.033-0.023c-0.531-0.36-2.23-0.744-4.34-0.72c-5.556-0.062-14.105,2.209-17.285,4.94
	c-1.083,0.894-1.387,1.613-1.368,2.01c0,0.03,0.001,0.062,0.004,0.099C323.374,486.445,323.376,486.449,323.377,486.454z"/>
<path d="M605.875,544.626c-2.435-6.654-7.031-16.287-11.48-24.478c-5.107-9.398-10.086-17.136-12.503-20.281
	c-10.985-14.286-27.701-32.505-54.596-54.42c-24.766-20.18-48.459-34.208-66.492-43.372l-0.448,0.348
	c-0.001-0.002-0.27-0.349-0.757-0.957c-14.563-7.327-25.259-11.406-29.564-12.944c-1.384-0.493-2.086-0.719-2.086-0.721l-0.808-0.26
	l-0.374-0.759c-0.004-0.002-0.444-0.899-1.237-2.357c-0.793-1.459-1.929-3.458-3.274-5.59c-2.671-4.263-6.328-9.085-9.437-11.097
	c-1.445-0.963-2.442-1.206-2.894-1.195c-0.452,0.032-0.439,0.075-0.627,0.279c-0.164,0.214-0.338,0.735-0.332,1.339
	c-0.021,0.816,0.336,1.69,0.581,1.907c1.08,1.182,2.462,3.429,4.042,6.217c1.548,2.76,3.145,5.913,4.214,8.511
	c0.701,1.777,1.218,3.132,1.257,4.562c-0.016,0.557-0.058,1.528-1.163,2.332c-0.634,0.377-1.096,0.379-1.472,0.392
	c-1.526-0.056-2.973-0.659-4.988-1.461c-1.956-0.81-4.212-1.871-6.367-2.928c-0.521-0.256-1.035-0.511-1.537-0.763
	c5.188,8.01,10.203,17.363,14.186,26.144c5.566,12.339,8.597,24.264,8.615,24.328l0.002,0.003l-1.113,0.282
	c13.019,4.754,29.198,11.116,44.532,18.403c22.907,10.894,44.247,24.952,57.441,36.289c12.627,10.856,37.394,33.786,53.458,63.566
	c18.562,34.432,31.463,74.33,37.695,94.383c1.062,3.433,1.945,6.31,2.613,8.44c0.896,0.304,1.677,0.47,2.268,0.448
	c0.94-0.034,1.288-0.218,1.715-0.721c0.424-0.521,0.874-1.691,0.95-3.687c0.037-0.87,0.054-1.866,0.054-2.968
	c0.009-14.03-3.036-45.024-9.335-71.827C613.44,566.513,609.314,554.022,605.875,544.626z"/>
<path d="M606.151,625.911c-7.005-20.195-16.802-45.405-29.018-68.062c-15.648-29.04-40.079-51.729-52.543-62.433
	c-12.833-11.034-33.989-24.988-56.558-35.71c-24.737-11.761-51.904-21.162-63.915-25.116c-0.076-0.025-0.145-0.047-0.222-0.072
	c2.319,3.548,4.762,7.843,7.002,11.925c3.049,5.593,5.601,10.677,6.47,12.432c7.283,0.589,14.179,1.862,19.086,4.579
	c2.645,1.479,4.798,3.514,5.816,6.26c0.276,0.759,0.408,1.562,0.408,2.376c-0.021,2.508-1.125,4.974-2.822,7.603
	c-1.197,1.836-2.729,3.752-4.519,5.74c8.372,6.34,50.372,38.338,82.374,66.467c18.212,16.007,31.641,32.138,38.188,39.693
	c7.018,8.095,13.124,15.988,18.081,22.794c5.235,7.218,24.448,29.243,38.417,39.486c1.25,0.935,2.461,1.75,3.612,2.458
	c-0.442-1.438-0.938-3.037-1.487-4.81C612.458,644.861,609.653,636.014,606.151,625.911z"/>
<path d="M381.261,523.694c-6.676-0.47-17.531-2.001-26.368-7.062c-5.812-3.356-13.072-8.425-19.5-13.436
	c-6.439-5.036-11.959-9.887-14.5-13.206c-0.421-0.583-0.777-1.101-1.05-1.67l-0.085,0.354c-0.002,0-1.173-0.283-2.677-0.588
	c-1.496-0.306-3.342-0.625-4.479-0.692c-0.357-0.021-1.643-0.077-3.435-0.075c-4.213-0.007-11.391,0.291-17.018,1.767
	c-2.948,0.764-5.497,1.974-7.352,3.153c-0.988,0.604-1.792,1.27-2.321,1.772c0.173,0.128,0.362,0.268,0.567,0.418
	c1.27,0.932,3.147,2.276,5.569,3.917c4.84,3.282,11.85,7.749,20.49,12.464c15.493,8.452,36.238,17.673,59.095,22.338
	C371.479,530.666,376.031,527.423,381.261,523.694z"/>
<path d="M349.197,477.24c0.532,0.415,1.186,0.966,2.132,1.725c1.404,1.132,3.293,2.627,5.604,4.309
	c4.616,3.359,10.914,7.456,18.289,10.81c11.767,5.392,29.522,8.103,34.672,8.069v0.496c5.06-3.941,9.889-7.908,14.104-11.688
	c-7.103-0.425-18.469-1.698-27.808-5.188c-15.783-5.936-31.568-15.598-36.229-18.818c-0.619-0.438-0.987-0.691-1.35-1.017
	c-0.008,0-0.017,0-0.025,0c-0.556-0.063-2.533,0.716-4.295,1.883c-1.796,1.14-3.584,2.588-4.484,3.498
	c-0.5,0.425-0.885,1.792-0.858,3.271c0,0.867,0.101,1.728,0.198,2.353C349.163,477.052,349.179,477.146,349.197,477.24z"/>
<path d="M440.337,526.421c-0.661,0-1.325-0.008-1.992-0.022c-17.058-0.416-36.389-6.002-42.982-7.895
	c-8.424,6.104-16.273,11.6-21.806,15.644c0.878,0.148,1.752,0.311,2.636,0.442c15.659,2.377,32.511,3.216,48.415,3.214
	c18.554,0.002,35.82-1.137,48.438-2.276c7.646-0.688,13.555-1.376,17.039-1.812c-5.25-4.323-10.479-8.563-15.533-12.619
	C470.719,522.249,455.869,526.411,440.337,526.421z"/>
<line fill="none" x1="369.125" y1="537.477" x2="369.123" y2="537.475"/>
<rect fill="none" width="678.068" height="933.094"/>
</svg>
